<svg width="26" height="26" viewBox="0 0 26 26" fill="none" xmlns="http://www.w3.org/2000/svg">
<path d="M13.5077 20.5563L19.3226 24.2484C20.0725 24.7214 20.9956 24.0176 20.7763 23.1523L19.0919 16.5297C19.0463 16.3461 19.0535 16.1534 19.1127 15.9738C19.1719 15.7942 19.2807 15.6349 19.4264 15.5144L24.6414 11.1647C25.3222 10.5994 24.976 9.45717 24.0876 9.39948L17.2804 8.96105C17.0947 8.95024 16.9161 8.88557 16.7666 8.77492C16.617 8.66428 16.5029 8.51246 16.4382 8.33802L13.8999 1.94619C13.8327 1.76147 13.7103 1.60191 13.5493 1.48916C13.3883 1.3764 13.1966 1.31592 13 1.31592C12.8034 1.31592 12.6117 1.3764 12.4507 1.48916C12.2897 1.60191 12.1673 1.76147 12.1001 1.94619L9.56179 8.33802C9.4971 8.51246 9.383 8.66428 9.23342 8.77492C9.08385 8.88557 8.90529 8.95024 8.71955 8.96105L1.91237 9.39948C1.02397 9.45717 0.677844 10.5994 1.35856 11.1647L6.57356 15.5144C6.71932 15.6349 6.82806 15.7942 6.88726 15.9738C6.94645 16.1534 6.9537 16.3461 6.90815 16.5297L5.35057 22.6677C5.08521 23.7061 6.19282 24.5483 7.08121 23.983L12.4923 20.5563C12.6441 20.4598 12.8202 20.4086 13 20.4086C13.1798 20.4086 13.3559 20.4598 13.5077 20.5563V20.5563Z" stroke="#F8D57E" stroke-width="2" stroke-linecap="round" stroke-linejoin="round"/>
</svg>
