<svg width="179" height="32" viewBox="0 0 179 32" fill="none" xmlns="http://www.w3.org/2000/svg">
<path d="M27 9H5C4.44772 9 4 9.44772 4 10V25C4 25.5523 4.44772 26 5 26H27C27.5523 26 28 25.5523 28 25V10C28 9.44772 27.5523 9 27 9Z" stroke="#2D2D2D" stroke-width="2" stroke-linecap="round" stroke-linejoin="round"/>
<path d="M10 3L16 9L22 3" stroke="#2D2D2D" stroke-width="2" stroke-linecap="round" stroke-linejoin="round"/>
<path d="M23.5 16C24.3284 16 25 15.3284 25 14.5C25 13.6716 24.3284 13 23.5 13C22.6716 13 22 13.6716 22 14.5C22 15.3284 22.6716 16 23.5 16Z" fill="#2D2D2D"/>
<path d="M23.5 22C24.3284 22 25 21.3284 25 20.5C25 19.6716 24.3284 19 23.5 19C22.6716 19 22 19.6716 22 20.5C22 21.3284 22.6716 22 23.5 22Z" fill="#2D2D2D"/>
<path d="M19 26V9" stroke="#2D2D2D" stroke-width="2" stroke-linecap="round" stroke-linejoin="round"/>
<path d="M42.9794 20.728H47.6834V23.5H39.3884V8.758H42.9794V20.728ZM48.6822 17.62C48.6822 16.416 48.9062 15.359 49.3542 14.449C49.8162 13.539 50.4392 12.839 51.2232 12.349C52.0072 11.859 52.8822 11.614 53.8482 11.614C54.6742 11.614 55.3952 11.782 56.0112 12.118C56.6412 12.454 57.1242 12.895 57.4602 13.441V11.782H61.0512V23.5H57.4602V21.841C57.1102 22.387 56.6202 22.828 55.9902 23.164C55.3742 23.5 54.6532 23.668 53.8272 23.668C52.8752 23.668 52.0072 23.423 51.2232 22.933C50.4392 22.429 49.8162 21.722 49.3542 20.812C48.9062 19.888 48.6822 18.824 48.6822 17.62ZM57.4602 17.641C57.4602 16.745 57.2082 16.038 56.7042 15.52C56.2142 15.002 55.6122 14.743 54.8982 14.743C54.1842 14.743 53.5752 15.002 53.0712 15.52C52.5812 16.024 52.3362 16.724 52.3362 17.62C52.3362 18.516 52.5812 19.23 53.0712 19.762C53.5752 20.28 54.1842 20.539 54.8982 20.539C55.6122 20.539 56.2142 20.28 56.7042 19.762C57.2082 19.244 57.4602 18.537 57.4602 17.641ZM70.7892 11.656C72.1612 11.656 73.2532 12.104 74.0652 13C74.8912 13.882 75.3042 15.1 75.3042 16.654V23.5H71.7342V17.137C71.7342 16.353 71.5312 15.744 71.1252 15.31C70.7192 14.876 70.1732 14.659 69.4872 14.659C68.8012 14.659 68.2552 14.876 67.8492 15.31C67.4432 15.744 67.2402 16.353 67.2402 17.137V23.5H63.6492V11.782H67.2402V13.336C67.6042 12.818 68.0942 12.412 68.7102 12.118C69.3262 11.81 70.0192 11.656 70.7892 11.656ZM77.0856 17.62C77.0856 16.416 77.3096 15.359 77.7576 14.449C78.2196 13.539 78.8426 12.839 79.6266 12.349C80.4106 11.859 81.2856 11.614 82.2516 11.614C83.0216 11.614 83.7216 11.775 84.3516 12.097C84.9956 12.419 85.4996 12.853 85.8636 13.399V7.96H89.4546V23.5H85.8636V21.82C85.5276 22.38 85.0446 22.828 84.4146 23.164C83.7986 23.5 83.0776 23.668 82.2516 23.668C81.2856 23.668 80.4106 23.423 79.6266 22.933C78.8426 22.429 78.2196 21.722 77.7576 20.812C77.3096 19.888 77.0856 18.824 77.0856 17.62ZM85.8636 17.641C85.8636 16.745 85.6116 16.038 85.1076 15.52C84.6176 15.002 84.0156 14.743 83.3016 14.743C82.5876 14.743 81.9786 15.002 81.4746 15.52C80.9846 16.024 80.7396 16.724 80.7396 17.62C80.7396 18.516 80.9846 19.23 81.4746 19.762C81.9786 20.28 82.5876 20.539 83.3016 20.539C84.0156 20.539 84.6176 20.28 85.1076 19.762C85.6116 19.244 85.8636 18.537 85.8636 17.641ZM93.8585 10.564C93.2285 10.564 92.7105 10.382 92.3045 10.018C91.9125 9.64 91.7165 9.178 91.7165 8.632C91.7165 8.072 91.9125 7.61 92.3045 7.246C92.7105 6.868 93.2285 6.679 93.8585 6.679C94.4745 6.679 94.9785 6.868 95.3705 7.246C95.7765 7.61 95.9795 8.072 95.9795 8.632C95.9795 9.178 95.7765 9.64 95.3705 10.018C94.9785 10.382 94.4745 10.564 93.8585 10.564ZM95.6435 11.782V23.5H92.0525V11.782H95.6435ZM105.386 11.656C106.758 11.656 107.85 12.104 108.662 13C109.488 13.882 109.901 15.1 109.901 16.654V23.5H106.331V17.137C106.331 16.353 106.128 15.744 105.722 15.31C105.316 14.876 104.77 14.659 104.084 14.659C103.398 14.659 102.852 14.876 102.446 15.31C102.04 15.744 101.837 16.353 101.837 17.137V23.5H98.2458V11.782H101.837V13.336C102.201 12.818 102.691 12.412 103.307 12.118C103.923 11.81 104.616 11.656 105.386 11.656ZM116.848 11.614C117.674 11.614 118.395 11.782 119.011 12.118C119.641 12.454 120.124 12.895 120.46 13.441V11.782H124.051V23.479C124.051 24.557 123.834 25.53 123.4 26.398C122.98 27.28 122.329 27.98 121.447 28.498C120.579 29.016 119.494 29.275 118.192 29.275C116.456 29.275 115.049 28.862 113.971 28.036C112.893 27.224 112.277 26.118 112.123 24.718H115.672C115.784 25.166 116.05 25.516 116.47 25.768C116.89 26.034 117.408 26.167 118.024 26.167C118.766 26.167 119.354 25.95 119.788 25.516C120.236 25.096 120.46 24.417 120.46 23.479V21.82C120.11 22.366 119.627 22.814 119.011 23.164C118.395 23.5 117.674 23.668 116.848 23.668C115.882 23.668 115.007 23.423 114.223 22.933C113.439 22.429 112.816 21.722 112.354 20.812C111.906 19.888 111.682 18.824 111.682 17.62C111.682 16.416 111.906 15.359 112.354 14.449C112.816 13.539 113.439 12.839 114.223 12.349C115.007 11.859 115.882 11.614 116.848 11.614ZM120.46 17.641C120.46 16.745 120.208 16.038 119.704 15.52C119.214 15.002 118.612 14.743 117.898 14.743C117.184 14.743 116.575 15.002 116.071 15.52C115.581 16.024 115.336 16.724 115.336 17.62C115.336 18.516 115.581 19.23 116.071 19.762C116.575 20.28 117.184 20.539 117.898 20.539C118.612 20.539 119.214 20.28 119.704 19.762C120.208 19.244 120.46 18.537 120.46 17.641ZM136.75 13.147C136.75 14.365 136.33 15.38 135.49 16.192C134.664 16.99 133.397 17.389 131.689 17.389H128.875V23.5H126.964V8.863H131.689C133.341 8.863 134.594 9.262 135.448 10.06C136.316 10.858 136.75 11.887 136.75 13.147ZM131.689 15.814C132.753 15.814 133.537 15.583 134.041 15.121C134.545 14.659 134.797 14.001 134.797 13.147C134.797 11.341 133.761 10.438 131.689 10.438H128.875V15.814H131.689ZM138.411 17.704C138.411 16.528 138.649 15.499 139.125 14.617C139.601 13.721 140.252 13.028 141.078 12.538C141.918 12.048 142.849 11.803 143.871 11.803C144.879 11.803 145.754 12.02 146.496 12.454C147.238 12.888 147.791 13.434 148.155 14.092V11.992H150.087V23.5H148.155V21.358C147.777 22.03 147.21 22.59 146.454 23.038C145.712 23.472 144.844 23.689 143.85 23.689C142.828 23.689 141.904 23.437 141.078 22.933C140.252 22.429 139.601 21.722 139.125 20.812C138.649 19.902 138.411 18.866 138.411 17.704ZM148.155 17.725C148.155 16.857 147.98 16.101 147.63 15.457C147.28 14.813 146.804 14.323 146.202 13.987C145.614 13.637 144.963 13.462 144.249 13.462C143.535 13.462 142.884 13.63 142.296 13.966C141.708 14.302 141.239 14.792 140.889 15.436C140.539 16.08 140.364 16.836 140.364 17.704C140.364 18.586 140.539 19.356 140.889 20.014C141.239 20.658 141.708 21.155 142.296 21.505C142.884 21.841 143.535 22.009 144.249 22.009C144.963 22.009 145.614 21.841 146.202 21.505C146.804 21.155 147.28 20.658 147.63 20.014C147.98 19.356 148.155 18.593 148.155 17.725ZM158.063 11.803C159.057 11.803 159.925 12.02 160.667 12.454C161.423 12.888 161.983 13.434 162.347 14.092V11.992H164.279V23.752C164.279 24.802 164.055 25.733 163.607 26.545C163.159 27.371 162.515 28.015 161.675 28.477C160.849 28.939 159.883 29.17 158.777 29.17C157.265 29.17 156.005 28.813 154.997 28.099C153.989 27.385 153.394 26.412 153.212 25.18H155.102C155.312 25.88 155.746 26.44 156.404 26.86C157.062 27.294 157.853 27.511 158.777 27.511C159.827 27.511 160.681 27.182 161.339 26.524C162.011 25.866 162.347 24.942 162.347 23.752V21.337C161.969 22.009 161.409 22.569 160.667 23.017C159.925 23.465 159.057 23.689 158.063 23.689C157.041 23.689 156.11 23.437 155.27 22.933C154.444 22.429 153.793 21.722 153.317 20.812C152.841 19.902 152.603 18.866 152.603 17.704C152.603 16.528 152.841 15.499 153.317 14.617C153.793 13.721 154.444 13.028 155.27 12.538C156.11 12.048 157.041 11.803 158.063 11.803ZM162.347 17.725C162.347 16.857 162.172 16.101 161.822 15.457C161.472 14.813 160.996 14.323 160.394 13.987C159.806 13.637 159.155 13.462 158.441 13.462C157.727 13.462 157.076 13.63 156.488 13.966C155.9 14.302 155.431 14.792 155.081 15.436C154.731 16.08 154.556 16.836 154.556 17.704C154.556 18.586 154.731 19.356 155.081 20.014C155.431 20.658 155.9 21.155 156.488 21.505C157.076 21.841 157.727 22.009 158.441 22.009C159.155 22.009 159.806 21.841 160.394 21.505C160.996 21.155 161.472 20.658 161.822 20.014C162.172 19.356 162.347 18.593 162.347 17.725ZM178.008 17.305C178.008 17.669 177.987 18.054 177.945 18.46H168.747C168.817 19.594 169.202 20.483 169.902 21.127C170.616 21.757 171.477 22.072 172.485 22.072C173.311 22.072 173.997 21.883 174.543 21.505C175.103 21.113 175.495 20.595 175.719 19.951H177.777C177.469 21.057 176.853 21.96 175.929 22.66C175.005 23.346 173.857 23.689 172.485 23.689C171.393 23.689 170.413 23.444 169.545 22.954C168.691 22.464 168.019 21.771 167.529 20.875C167.039 19.965 166.794 18.915 166.794 17.725C166.794 16.535 167.032 15.492 167.508 14.596C167.984 13.7 168.649 13.014 169.503 12.538C170.371 12.048 171.365 11.803 172.485 11.803C173.577 11.803 174.543 12.041 175.383 12.517C176.223 12.993 176.867 13.651 177.315 14.491C177.777 15.317 178.008 16.255 178.008 17.305ZM176.034 16.906C176.034 16.178 175.873 15.555 175.551 15.037C175.229 14.505 174.788 14.106 174.228 13.84C173.682 13.56 173.073 13.42 172.401 13.42C171.435 13.42 170.609 13.728 169.923 14.344C169.251 14.96 168.866 15.814 168.768 16.906H176.034Z" fill="#2D2D2D"/>
</svg>
