<svg width="24" height="25" viewBox="0 0 24 25" fill="none" xmlns="http://www.w3.org/2000/svg">
<path opacity="0.2" d="M8.67187 12.1002C9.44364 13.6939 10.7324 14.9794 12.3281 15.7471C12.4458 15.8028 12.576 15.8269 12.7059 15.817C12.8358 15.8072 12.9608 15.7637 13.0687 15.6908L15.4125 14.1252C15.516 14.0549 15.6357 14.0121 15.7603 14.0006C15.8849 13.9891 16.0104 14.0094 16.125 14.0596L20.5125 15.9439C20.6625 16.0063 20.7877 16.1163 20.869 16.2569C20.9504 16.3975 20.9832 16.561 20.9625 16.7221C20.8234 17.8074 20.2937 18.805 19.4723 19.528C18.6509 20.251 17.5943 20.6499 16.5 20.6502C13.1185 20.6502 9.87548 19.3069 7.48439 16.9158C5.0933 14.5247 3.75 11.2817 3.75 7.90018C3.75025 6.80592 4.1492 5.74925 4.87221 4.92789C5.59522 4.10652 6.59274 3.57674 7.67812 3.43768C7.83922 3.41698 8.00266 3.44982 8.14326 3.53113C8.28386 3.61245 8.39384 3.73772 8.45625 3.88768L10.3406 8.28455C10.3896 8.39738 10.4101 8.52052 10.4003 8.64314C10.3905 8.76576 10.3507 8.88408 10.2844 8.98768L8.71875 11.3689C8.64905 11.4766 8.60814 11.6004 8.59993 11.7284C8.59172 11.8565 8.61649 11.9845 8.67187 12.1002Z" fill="#009379"/>
<path d="M8.67187 12.1002C9.44364 13.6939 10.7324 14.9794 12.3281 15.7471C12.4458 15.8028 12.576 15.8269 12.7059 15.817C12.8358 15.8072 12.9608 15.7637 13.0687 15.6908L15.4125 14.1252C15.516 14.0549 15.6357 14.0121 15.7603 14.0006C15.8849 13.9891 16.0104 14.0094 16.125 14.0596L20.5125 15.9439C20.6625 16.0063 20.7877 16.1163 20.869 16.2569C20.9504 16.3975 20.9832 16.561 20.9625 16.7221C20.8234 17.8074 20.2937 18.805 19.4723 19.528C18.6509 20.251 17.5943 20.6499 16.5 20.6502C13.1185 20.6502 9.87548 19.3069 7.48439 16.9158C5.0933 14.5247 3.75 11.2817 3.75 7.90018C3.75025 6.80592 4.1492 5.74925 4.87221 4.92789C5.59522 4.10652 6.59274 3.57674 7.67812 3.43768C7.83922 3.41698 8.00266 3.44982 8.14326 3.53113C8.28386 3.61245 8.39384 3.73772 8.45625 3.88768L10.3406 8.28455C10.3896 8.39738 10.4101 8.52052 10.4003 8.64314C10.3905 8.76576 10.3507 8.88408 10.2844 8.98768L8.71875 11.3689C8.64905 11.4766 8.60814 11.6004 8.59993 11.7284C8.59172 11.8565 8.61649 11.9845 8.67187 12.1002Z" stroke="#009379" stroke-width="1.5" stroke-linecap="round" stroke-linejoin="round"/>
<path d="M14.9438 4.15039C16.2159 4.4918 17.3759 5.16181 18.3072 6.09318C19.2386 7.02455 19.9086 8.18451 20.25 9.45664" stroke="#009379" stroke-width="1.5" stroke-linecap="round" stroke-linejoin="round"/>
<path d="M14.1656 7.04736C14.9307 7.25056 15.6285 7.65241 16.1883 8.21218C16.748 8.77195 17.1499 9.46975 17.3531 10.2349" stroke="#009379" stroke-width="1.5" stroke-linecap="round" stroke-linejoin="round"/>
</svg>
