<svg width="18" height="11" viewBox="0 0 18 11" fill="none" xmlns="http://www.w3.org/2000/svg">
<path fill-rule="evenodd" clip-rule="evenodd" d="M11.3722 1.84678H15.8917V0.551933H11.3722V1.84678ZM12.4429 4.6721C12.1549 4.96512 11.9733 5.36209 11.899 5.86301H15.4141C15.377 5.32843 15.1944 4.92454 14.8712 4.64636C14.5441 4.37017 14.1417 4.23256 13.6601 4.23256C13.1383 4.23256 12.7309 4.37908 12.4429 4.6721ZM15.4933 2.93377C16.0382 3.17334 16.4868 3.55348 16.84 4.07221C17.1621 4.52956 17.3688 5.06017 17.4631 5.66305C17.5183 6.01547 17.5404 6.52628 17.5314 7.19054H11.8488C11.8829 7.96171 12.1518 8.50321 12.6656 8.81306C12.9767 9.0061 13.351 9.10311 13.7905 9.10311C14.2531 9.10311 14.6314 8.98531 14.9214 8.75069C15.0809 8.62299 15.2214 8.44678 15.3418 8.22107H17.424C17.3688 8.67645 17.1159 9.14073 16.6684 9.61195C15.97 10.3594 14.9916 10.7336 13.7343 10.7336C12.6957 10.7336 11.7796 10.4188 10.9878 9.78717C10.1921 9.15657 9.79674 8.12901 9.79674 6.70744C9.79674 5.37399 10.155 4.35137 10.8704 3.6396C11.5879 2.92981 12.5161 2.57244 13.659 2.57244C14.3384 2.57244 14.9495 2.69321 15.4933 2.93377ZM2.56888 5.89073V8.66555H5.12969C5.58726 8.66555 5.94449 8.60418 6.19837 8.48241C6.66096 8.25473 6.89175 7.82311 6.89175 7.1836C6.89175 6.64111 6.66899 6.26988 6.22044 6.06695C5.96958 5.95409 5.61737 5.89469 5.16581 5.89073H2.56888ZM2.56888 1.87351V4.1692H5.1337C5.59027 4.1692 5.96256 4.08307 6.24954 3.91082C6.53452 3.73857 6.67802 3.43367 6.67802 2.99809C6.67802 2.51203 6.48937 2.19228 6.11207 2.03587C5.78494 1.92796 5.36952 1.87351 4.86478 1.87351H2.56888ZM8.29661 1.17563C8.61872 1.61814 8.78028 2.14677 8.78028 2.76351C8.78028 3.39806 8.61872 3.90986 8.2926 4.29594C8.10997 4.51175 7.84205 4.70974 7.48783 4.88793C8.02568 5.08196 8.43107 5.38785 8.70702 5.8066C8.97996 6.22436 9.11744 6.73319 9.11744 7.33112C9.11744 7.94785 8.9609 8.50123 8.64682 8.99027C8.44813 9.31398 8.19928 9.5872 7.90025 9.80895C7.56409 10.0634 7.16773 10.2366 6.70915 10.3316C6.25057 10.4257 5.75487 10.4712 5.21902 10.4712H0.466675V0.0668945H5.56321C6.84963 0.0857035 7.75976 0.454953 8.29661 1.17563Z" fill="#2D2D2D"/>
</svg>
