<svg width="18" height="18" viewBox="0 0 18 18" fill="none" xmlns="http://www.w3.org/2000/svg">
<path fill-rule="evenodd" clip-rule="evenodd" d="M9.0008 0.867188C6.68326 0.867188 6.39242 0.877321 5.48219 0.918744C4.57373 0.960344 3.95364 1.10417 3.41105 1.31519C2.8498 1.53315 2.37371 1.82471 1.89939 2.2992C1.42472 2.77352 1.13316 3.24961 0.914494 3.81068C0.702936 4.35345 0.558935 4.97372 0.518045 5.88182C0.477334 6.79205 0.466667 7.08307 0.466667 9.40061C0.466667 11.7181 0.476978 12.0081 0.518223 12.9183C0.560001 13.8268 0.703825 14.4469 0.914672 14.9895C1.13281 15.5507 1.42437 16.0268 1.89886 16.5011C2.373 16.9758 2.84909 17.2681 3.40999 17.486C3.95293 17.6971 4.5732 17.8409 5.48147 17.8825C6.39171 17.9239 6.68238 17.934 8.99973 17.934C11.3174 17.934 11.6074 17.9239 12.5176 17.8825C13.4261 17.8409 14.0469 17.6971 14.5898 17.486C15.1509 17.2681 15.6263 16.9758 16.1004 16.5011C16.5751 16.0268 16.8667 15.5507 17.0853 14.9896C17.2951 14.4469 17.4391 13.8266 17.4818 12.9185C17.5227 12.0083 17.5333 11.7181 17.5333 9.40061C17.5333 7.08307 17.5227 6.79223 17.4818 5.88199C17.4391 4.97354 17.2951 4.35345 17.0853 3.81086C16.8667 3.24961 16.5751 2.77352 16.1004 2.2992C15.6258 1.82453 15.1511 1.53297 14.5893 1.31519C14.0453 1.10417 13.4248 0.960344 12.5164 0.918744C11.6062 0.877321 11.3164 0.867188 8.99813 0.867188H9.0008ZM8.23524 2.40496C8.46245 2.4046 8.71596 2.40496 9.00076 2.40496C11.2792 2.40496 11.5492 2.41314 12.449 2.45402C13.281 2.49207 13.7325 2.63109 14.0333 2.74789C14.4316 2.90256 14.7155 3.08745 15.014 3.38612C15.3127 3.68479 15.4975 3.96924 15.6526 4.36747C15.7694 4.66791 15.9086 5.11947 15.9464 5.95148C15.9873 6.85105 15.9962 7.12127 15.9962 9.39863C15.9962 11.676 15.9873 11.9462 15.9464 12.8458C15.9084 13.6778 15.7694 14.1293 15.6526 14.4298C15.4979 14.828 15.3127 15.1116 15.014 15.4101C14.7153 15.7087 14.4318 15.8936 14.0333 16.0483C13.7329 16.1656 13.281 16.3043 12.449 16.3423C11.5494 16.3832 11.2792 16.3921 9.00076 16.3921C6.72216 16.3921 6.45212 16.3832 5.55255 16.3423C4.72054 16.3039 4.26898 16.1649 3.968 16.0481C3.56977 15.8935 3.28533 15.7086 2.98666 15.4099C2.68799 15.1112 2.5031 14.8275 2.34807 14.4291C2.23127 14.1286 2.09207 13.6771 2.0542 12.8451C2.01331 11.9455 2.00514 11.6753 2.00514 9.3965C2.00514 7.11772 2.01331 6.84892 2.0542 5.94935C2.09225 5.11734 2.23127 4.66578 2.34807 4.36498C2.50274 3.96675 2.68799 3.6823 2.98666 3.38363C3.28533 3.08496 3.56977 2.90007 3.968 2.74505C4.2688 2.62772 4.72054 2.48905 5.55255 2.45082C6.33976 2.41527 6.64483 2.4046 8.23524 2.40282V2.40496ZM13.5558 3.82186C12.9905 3.82186 12.5318 4.28 12.5318 4.84552C12.5318 5.41086 12.9905 5.86953 13.5558 5.86953C14.1212 5.86953 14.5798 5.41086 14.5798 4.84552C14.5798 4.28018 14.1212 3.82186 13.5558 3.82186ZM9.00082 5.01832C6.5807 5.01832 4.61855 6.98047 4.61855 9.40059C4.61855 11.8207 6.5807 13.782 9.00082 13.782C11.4209 13.782 13.3824 11.8207 13.3824 9.40059C13.3824 6.98047 11.4209 5.01832 9.00082 5.01832ZM9.00078 6.55611C10.5716 6.55611 11.8453 7.82955 11.8453 9.40059C11.8453 10.9714 10.5716 12.2451 9.00078 12.2451C7.42974 12.2451 6.15631 10.9714 6.15631 9.40059C6.15631 7.82955 7.42974 6.55611 9.00078 6.55611Z" fill="#2D2D2D"/>
</svg>
