<svg width="16" height="13" viewBox="0 0 16 13" fill="none" xmlns="http://www.w3.org/2000/svg">
<path fill-rule="evenodd" clip-rule="evenodd" d="M7.5208 3.40549L7.55438 3.95913L6.99479 3.89133C4.95791 3.63146 3.17843 2.75016 1.66756 1.27004L0.928908 0.53562L0.73865 1.07796C0.33575 2.28692 0.593158 3.56367 1.43253 4.42237C1.8802 4.89692 1.77948 4.96471 1.00725 4.68224C0.73865 4.59185 0.503625 4.52406 0.481242 4.55796C0.4029 4.63705 0.6715 5.66523 0.884142 6.07198C1.17513 6.63692 1.76828 7.19055 2.4174 7.51821L2.96579 7.77808L2.31668 7.78938C1.68994 7.78938 1.66756 7.80068 1.73471 8.03795C1.95854 8.77237 2.84268 9.55198 3.82755 9.89094L4.52143 10.1282L3.91708 10.4898C3.02175 11.0095 1.96973 11.3033 0.917717 11.3259C0.414092 11.3372 0 11.3824 0 11.4163C0 11.5293 1.36538 12.162 2.15999 12.4105C4.54382 13.145 7.37531 12.8286 9.50173 11.5744C11.0126 10.6818 12.5235 8.90795 13.2286 7.19055C13.6091 6.27536 13.9896 4.60315 13.9896 3.80094C13.9896 3.2812 14.0232 3.21341 14.6499 2.59198C15.0192 2.23042 15.3662 1.83497 15.4333 1.72198C15.5452 1.50731 15.534 1.50731 14.9633 1.69939C14.012 2.03835 13.8777 1.99315 14.3477 1.48471C14.6947 1.12315 15.1088 0.467828 15.1088 0.27575C15.1088 0.241854 14.9409 0.298347 14.7506 0.400036C14.5492 0.513023 14.1015 0.682503 13.7658 0.784191L13.1614 0.976269L12.613 0.603412C12.3108 0.400036 11.8856 0.174062 11.6617 0.10627C11.0909 -0.0519122 10.218 -0.0293149 9.70318 0.151464C8.30422 0.659906 7.42008 1.97055 7.5208 3.40549Z" fill="#2D2D2D"/>
</svg>
