<svg width="18" height="18" viewBox="0 0 18 18" fill="none" xmlns="http://www.w3.org/2000/svg">
<path fill-rule="evenodd" clip-rule="evenodd" d="M17.5333 9.38869C17.5333 9.96578 17.4746 10.5421 17.3592 11.1038C17.2467 11.6522 17.08 12.1906 16.8616 12.7053C16.6483 13.2109 16.3837 13.6981 16.0745 14.1525C15.77 14.604 15.4191 15.0275 15.0336 15.4137C14.6474 15.7981 14.2224 16.148 13.7711 16.4539C13.3152 16.7609 12.8273 17.0251 12.3214 17.2394C11.806 17.4566 11.2664 17.6231 10.7184 17.7354C10.1559 17.8511 9.57754 17.9102 8.99961 17.9102C8.42125 17.9102 7.84289 17.8511 7.2812 17.7354C6.73243 17.6231 6.19281 17.4566 5.67778 17.2394C5.17193 17.0251 4.68355 16.7609 4.2277 16.4539C3.77643 16.148 3.35141 15.7981 2.96597 15.4137C2.58013 15.0275 2.22926 14.604 1.92425 14.1525C1.61673 13.6981 1.3517 13.2109 1.13754 12.7053C0.919167 12.1906 0.752099 11.6522 0.639172 11.1038C0.52501 10.5421 0.46666 9.96578 0.46666 9.38869C0.46666 8.81116 0.524977 8.23364 0.639206 7.67312C0.752132 7.12471 0.919201 6.58548 1.13757 6.07162C1.35173 5.56567 1.61677 5.07803 1.92428 4.62364C2.2293 4.17178 2.58017 3.74901 2.96601 3.36246C3.35145 2.97798 3.77647 2.62891 4.22774 2.32351C4.68359 2.01517 5.17196 1.75099 5.67781 1.53626C6.19285 1.31861 6.73243 1.15178 7.28123 1.04029C7.84292 0.925454 8.42128 0.867188 8.99964 0.867188C9.57757 0.867188 10.1559 0.925454 10.7185 1.04029C11.2664 1.15181 11.806 1.31864 12.3215 1.53626C12.8273 1.75095 13.3153 2.01517 13.7711 2.32351C14.2224 2.62891 14.6474 2.97798 15.0337 3.36246C15.4191 3.74901 15.77 4.17178 16.0746 4.62364C16.3837 5.07803 16.6483 5.5657 16.8616 6.07162C17.08 6.58548 17.2467 7.12471 17.3592 7.67312C17.4746 8.23364 17.5333 8.81116 17.5333 9.38869ZM5.89024 2.80657C3.85804 3.76484 2.34129 5.63473 1.86834 7.88826C2.06046 7.88993 5.09729 7.92822 8.59621 6.9999C7.33491 4.76217 5.98734 2.93601 5.89024 2.80657ZM9.19998 8.12047C5.44772 9.2422 1.8471 9.16149 1.71794 9.15652C1.71583 9.23473 1.71209 9.31044 1.71209 9.38868C1.71209 11.2581 2.41838 12.9624 3.57927 14.2511C3.57677 14.2473 5.57107 10.7143 9.50376 9.44445C9.59875 9.41283 9.69544 9.38451 9.79127 9.35706C9.60837 8.9435 9.40873 8.52906 9.19998 8.12047ZM13.8123 3.92711C12.5293 2.7974 10.8447 2.11215 8.99958 2.11215C8.40746 2.11215 7.83284 2.18372 7.28241 2.31603C7.39156 2.46251 8.7604 4.2758 10.0067 6.56092C12.7565 5.53154 13.7944 3.95372 13.8123 3.92711ZM10.288 10.5629C10.2718 10.5683 10.2556 10.5729 10.2397 10.5787C5.93995 12.0755 4.53581 15.0919 4.52062 15.1249C5.7578 16.0856 7.30954 16.6652 8.99963 16.6652C10.0088 16.6652 10.9701 16.46 11.8447 16.0885C11.7368 15.4527 11.3135 13.2242 10.288 10.5629ZM13.0719 15.4236C14.7082 14.321 15.8703 12.5701 16.1945 10.542C16.0445 10.4938 14.0057 9.84925 11.6534 10.2258C12.6093 12.8489 12.9977 14.9851 13.0719 15.4236ZM10.5676 7.64527C10.7368 7.99229 10.9006 8.34549 11.0518 8.70046C11.1056 8.8278 11.1581 8.95264 11.2093 9.07744C13.7128 8.76286 16.1791 9.29213 16.2846 9.31374C16.2679 7.58867 15.65 6.00544 14.6274 4.76594C14.6137 4.78545 13.4449 6.47187 10.5676 7.64527Z" fill="#2D2D2D"/>
</svg>
