<svg width="18" height="18" viewBox="0 0 18 18" fill="none" xmlns="http://www.w3.org/2000/svg">
<path fill-rule="evenodd" clip-rule="evenodd" d="M9.00081 0.867188C6.68327 0.867188 6.39243 0.877321 5.48219 0.918744C4.57374 0.960344 3.95364 1.10417 3.41106 1.31519C2.84981 1.53315 2.37372 1.82471 1.8994 2.2992C1.42473 2.77352 1.13317 3.24961 0.914502 3.81068C0.702944 4.35345 0.558942 4.97372 0.518053 5.88182C0.477342 6.79205 0.466675 7.08307 0.466675 9.40061C0.466675 11.7181 0.476986 12.0081 0.518231 12.9183C0.560009 13.8268 0.703833 14.4469 0.914679 14.9895C1.13282 15.5507 1.42437 16.0268 1.89887 16.5011C2.37301 16.9758 2.8491 17.2681 3.40999 17.486C3.95293 17.6971 4.57321 17.8409 5.48148 17.8825C6.39171 17.9239 6.68238 17.934 8.99974 17.934C11.3175 17.934 11.6074 17.9239 12.5176 17.8825C13.4261 17.8409 14.0469 17.6971 14.5898 17.486C15.1509 17.2681 15.6263 16.9758 16.1004 16.5011C16.5751 16.0268 16.8667 15.5507 17.0853 14.9896C17.2951 14.4469 17.4391 13.8266 17.4818 12.9185C17.5227 12.0083 17.5333 11.7181 17.5333 9.40061C17.5333 7.08307 17.5227 6.79223 17.4818 5.88199C17.4391 4.97354 17.2951 4.35345 17.0853 3.81086C16.8667 3.24961 16.5751 2.77352 16.1004 2.2992C15.6258 1.82453 15.1511 1.53297 14.5893 1.31519C14.0453 1.10417 13.4249 0.960344 12.5164 0.918744C11.6062 0.877321 11.3164 0.867188 8.99814 0.867188H9.00081ZM8.23525 2.40496C8.46245 2.4046 8.71597 2.40496 9.00077 2.40496C11.2792 2.40496 11.5492 2.41314 12.449 2.45402C13.281 2.49207 13.7326 2.63109 14.0334 2.74789C14.4316 2.90256 14.7155 3.08745 15.014 3.38612C15.3127 3.68479 15.4976 3.96924 15.6526 4.36747C15.7694 4.66791 15.9086 5.11947 15.9464 5.95148C15.9873 6.85105 15.9962 7.12127 15.9962 9.39863C15.9962 11.676 15.9873 11.9462 15.9464 12.8458C15.9084 13.6778 15.7694 14.1293 15.6526 14.4298C15.4979 14.828 15.3127 15.1116 15.014 15.4101C14.7153 15.7087 14.4318 15.8936 14.0334 16.0483C13.7329 16.1656 13.281 16.3043 12.449 16.3423C11.5494 16.3832 11.2792 16.3921 9.00077 16.3921C6.72217 16.3921 6.45212 16.3832 5.55256 16.3423C4.72055 16.3039 4.26899 16.1649 3.96801 16.0481C3.56978 15.8935 3.28533 15.7086 2.98666 15.4099C2.68799 15.1112 2.5031 14.8275 2.34808 14.4291C2.23128 14.1286 2.09208 13.6771 2.05421 12.8451C2.01332 11.9455 2.00514 11.6753 2.00514 9.3965C2.00514 7.11772 2.01332 6.84892 2.05421 5.94935C2.09226 5.11734 2.23128 4.66578 2.34808 4.36498C2.50275 3.96675 2.68799 3.6823 2.98666 3.38363C3.28533 3.08496 3.56978 2.90007 3.96801 2.74505C4.26881 2.62772 4.72055 2.48905 5.55256 2.45082C6.33977 2.41527 6.64484 2.4046 8.23525 2.40282V2.40496ZM13.5558 3.82186C12.9905 3.82186 12.5318 4.28 12.5318 4.84552C12.5318 5.41086 12.9905 5.86953 13.5558 5.86953C14.1212 5.86953 14.5799 5.41086 14.5799 4.84552C14.5799 4.28018 14.1212 3.82186 13.5558 3.82186ZM9.00082 5.01832C6.58071 5.01832 4.61855 6.98047 4.61855 9.40059C4.61855 11.8207 6.58071 13.782 9.00082 13.782C11.4209 13.782 13.3824 11.8207 13.3824 9.40059C13.3824 6.98047 11.4209 5.01832 9.00082 5.01832ZM9.00079 6.55611C10.5717 6.55611 11.8453 7.82955 11.8453 9.40059C11.8453 10.9714 10.5717 12.2451 9.00079 12.2451C7.42975 12.2451 6.15632 10.9714 6.15632 9.40059C6.15632 7.82955 7.42975 6.55611 9.00079 6.55611Z" fill="white"/>
</svg>
