<svg width="18" height="17" viewBox="0 0 18 17" fill="none" xmlns="http://www.w3.org/2000/svg">
<path d="M4.54585 2.28219C4.52232 1.21399 3.75844 0.400391 2.51803 0.400391C1.27761 0.400391 0.466675 1.21399 0.466675 2.28219C0.466675 3.32826 1.25365 4.16529 2.47096 4.16529H2.49413C3.75844 4.16529 4.54585 3.32826 4.54585 2.28219Z" fill="white"/>
<path d="M4.30704 5.65234H0.681091V16.5468H4.30704V5.65234Z" fill="white"/>
<path d="M13.2088 5.39648C15.5948 5.39648 17.3836 6.95391 17.3836 10.3002L17.3835 16.5468H13.7577V10.7182C13.7577 9.25423 13.233 8.25523 11.9204 8.25523C10.9186 8.25523 10.3219 8.9287 10.0599 9.57917C9.964 9.81229 9.94047 10.1371 9.94047 10.4627V16.5471H6.31409C6.31409 16.5471 6.36188 6.67488 6.31409 5.6526H9.94047V7.19571C10.4217 6.45391 11.2836 5.39648 13.2088 5.39648Z" fill="white"/>
</svg>
