<svg width="24" height="25" viewBox="0 0 24 25" fill="none" xmlns="http://www.w3.org/2000/svg">
<path d="M12.0001 0.400391C5.3735 0.400391 0 5.90886 0 12.7042C0 18.1403 3.43839 22.7523 8.2064 24.3792C8.80613 24.4931 9.02631 24.1123 9.02631 23.7874C9.02631 23.494 9.01518 22.5247 9.01001 21.4966C5.67157 22.2409 4.96712 20.045 4.96712 20.045C4.42125 18.6228 3.63473 18.2447 3.63473 18.2447C2.54596 17.481 3.7168 17.4967 3.7168 17.4967C4.92181 17.5835 5.55632 18.7646 5.55632 18.7646C6.6266 20.6456 8.36359 20.1018 9.04836 19.7874C9.15607 18.9922 9.46706 18.4494 9.81024 18.1422C7.14486 17.8311 4.34295 16.7761 4.34295 12.0616C4.34295 10.7183 4.81172 9.62071 5.57937 8.75907C5.45477 8.44917 5.04402 7.19776 5.69562 5.503C5.69562 5.503 6.70331 5.17232 8.9965 6.76419C9.95372 6.49158 10.9803 6.35486 12.0001 6.35018C13.0199 6.35486 14.0473 6.49158 15.0063 6.76419C17.2967 5.17232 18.303 5.503 18.303 5.503C18.9562 7.19776 18.5452 8.44917 18.4206 8.75907C19.1901 9.62071 19.6557 10.7183 19.6557 12.0616C19.6557 16.7873 16.8484 17.8278 14.1762 18.1324C14.6067 18.5142 14.9902 19.263 14.9902 20.4109C14.9902 22.0572 14.9763 23.3821 14.9763 23.7874C14.9763 24.1148 15.1923 24.4984 15.8006 24.3776C20.566 22.7489 24 18.1385 24 12.7042C24 5.90886 18.6273 0.400391 12.0001 0.400391Z" fill="white"/>
<path d="M4.58043 17.9815C4.55405 18.0421 4.46043 18.0602 4.37514 18.0187C4.28827 17.9789 4.23947 17.8964 4.26764 17.8357C4.29342 17.7734 4.38724 17.756 4.47392 17.7978C4.56099 17.8375 4.61058 17.9208 4.58043 17.9815Z" fill="white"/>
<path d="M5.06559 18.5319C5.00846 18.5857 4.89679 18.5607 4.82103 18.4756C4.74268 18.3907 4.728 18.2771 4.78592 18.2224C4.84483 18.1686 4.95312 18.1938 5.03167 18.2787C5.11002 18.3646 5.12529 18.4774 5.06559 18.5319Z" fill="white"/>
<path d="M5.53784 19.2335C5.46445 19.2854 5.34445 19.2367 5.27027 19.1284C5.19688 19.0201 5.19688 18.8902 5.27186 18.8381C5.34624 18.7861 5.46445 18.8329 5.53963 18.9404C5.61282 19.0505 5.61282 19.1805 5.53784 19.2335Z" fill="white"/>
<path d="M6.18485 19.9114C6.1192 19.985 5.97936 19.9652 5.87701 19.8648C5.77229 19.7665 5.74313 19.6271 5.80898 19.5535C5.87543 19.4796 6.01606 19.5004 6.1192 19.6001C6.22313 19.6981 6.25487 19.8385 6.18485 19.9114Z" fill="white"/>
<path d="M7.07741 20.3049C7.04845 20.4004 6.91377 20.4437 6.7781 20.4032C6.64263 20.3614 6.55397 20.2497 6.58134 20.1532C6.60951 20.0572 6.74478 20.012 6.88144 20.0554C7.01672 20.097 7.10558 20.2079 7.07741 20.3049Z" fill="white"/>
<path d="M8.05764 20.378C8.06101 20.4784 7.94597 20.5618 7.80356 20.5636C7.66035 20.5668 7.54452 20.4855 7.54293 20.3867C7.54293 20.2852 7.65539 20.2027 7.7986 20.2002C7.94101 20.1974 8.05764 20.2781 8.05764 20.378Z" fill="white"/>
<path d="M8.96985 20.22C8.98691 20.3181 8.88793 20.4187 8.74651 20.4456C8.60747 20.4714 8.47874 20.4109 8.46109 20.3136C8.44383 20.2132 8.54459 20.1125 8.68344 20.0865C8.82506 20.0614 8.9518 20.1204 8.96985 20.22Z" fill="white"/>
</svg>
