<svg width="18" height="13" viewBox="0 0 18 13" fill="none" xmlns="http://www.w3.org/2000/svg">
<path fill-rule="evenodd" clip-rule="evenodd" d="M15.6677 0.899911C16.4021 1.10142 16.9804 1.69517 17.1767 2.44917C17.5333 3.81572 17.5333 6.66702 17.5333 6.66702C17.5333 6.66702 17.5333 9.51823 17.1767 10.8849C16.9804 11.6389 16.4021 12.2326 15.6677 12.4342C14.3369 12.8004 9.00001 12.8004 9.00001 12.8004C9.00001 12.8004 3.66309 12.8004 2.33218 12.4342C1.59783 12.2326 1.0195 11.6389 0.823232 10.8849C0.466675 9.51823 0.466675 6.66702 0.466675 6.66702C0.466675 6.66702 0.466675 3.81572 0.823232 2.44917C1.0195 1.69517 1.59783 1.10142 2.33218 0.899911C3.66309 0.533691 9.00001 0.533691 9.00001 0.533691C9.00001 0.533691 14.3369 0.533691 15.6677 0.899911ZM7.40002 4.26697V9.6003L11.6667 6.93374L7.40002 4.26697Z" fill="white"/>
</svg>
